<svg width="512" height="512" viewBox="0 0 512 512" fill="none" xmlns="http://www.w3.org/2000/svg">
<path d="M256 236.814C256 236.814 143.754 261.814 61.5055 261.814C-20.7435 261.814 -20.2597 211.814 61.5055 211.814C143.271 211.814 256 236.814 256 236.814Z" fill="#04007C" fill-opacity="0.05"/>
<path d="M246.443 239.323C246.443 239.323 161.736 317.096 90.5062 358.221C19.2765 399.345 -5.30435 355.802 65.5062 314.919C136.317 274.036 246.443 239.323 246.443 239.323Z" fill="#04007C" fill-opacity="0.15"/>
<path d="M239.421 246.274C239.421 246.274 204.949 355.981 163.825 427.211C122.7 498.44 79.6409 473.022 120.523 402.211C161.406 331.4 239.421 246.274 239.421 246.274Z" fill="#100C82" fill-opacity="0.25"/>
<path d="M236.816 255.804C236.816 255.804 261.815 368.05 261.815 450.299C261.815 532.548 211.816 532.064 211.815 450.299C211.815 368.534 236.816 255.804 236.816 255.804Z" fill="#100C82" fill-opacity="0.35"/>
<path d="M239.324 265.361C239.324 265.361 317.097 350.069 358.221 421.299C399.346 492.528 355.803 517.109 314.92 446.299C274.037 375.488 239.324 265.361 239.324 265.361Z" fill="#100C82" fill-opacity="0.45"/>
<path d="M246.274 272.384C246.274 272.384 355.982 306.856 427.212 347.98C498.441 389.105 473.023 432.164 402.212 391.282C331.401 350.399 246.274 272.384 246.274 272.384Z" fill="#04007C" fill-opacity="0.55"/>
<path d="M255.805 274.989C255.805 274.989 368.05 249.989 450.299 249.989C532.548 249.989 532.064 299.989 450.299 299.989C368.534 299.99 255.805 274.989 255.805 274.989Z" fill="#28258E" fill-opacity="0.65"/>
<path d="M265.361 272.481C265.361 272.481 350.069 194.707 421.299 153.583C492.528 112.458 517.109 156.001 446.299 196.884C375.488 237.767 265.361 272.481 265.361 272.481Z" fill="#04007C" fill-opacity="0.75"/>
<path d="M272.384 265.53C272.384 265.53 306.856 155.823 347.98 84.5931C389.105 13.3634 432.164 38.7823 391.282 109.593C350.399 180.404 272.384 265.53 272.384 265.53Z" fill="#04007C" fill-opacity="0.85"/>
<path d="M274.989 256C274.989 256 249.989 143.754 249.989 61.5054C249.989 -20.7435 299.989 -20.2597 299.989 61.5055C299.99 143.271 274.989 256 274.989 256Z" fill="#04007C" fill-opacity="0.95"/>
<path d="M272.481 246.444C272.481 246.444 194.708 161.736 153.583 90.5065C112.459 19.2768 156.002 -5.304 196.885 65.5066C237.767 136.317 272.481 246.444 272.481 246.444Z" fill="#04007C"/>
</svg>
